# xmcd
#
# Track frame offsets: 
#        150
#        12454
#        19568
#        28009
#        38893
#        51479
#        65380
#        76303
#        84552
#        92593
#        103136
#        115901
#        126832
#        135874
#
# Disc length: 1967 seconds
#
# Revision: 0
# Processed by: cddbd v1.5.2PL0 Copyright (c) Steve Scherf et al.
# Submitted via: ExactAudioCopy v0.99pb5
#
DISCID=af07ad0e
DTITLE=Канцлер Ги - Невзятый замок
DYEAR=1900
DGENRE=Ballad
TTITLE0=Blia
TTITLE1=Невзятый замок
TTITLE2=Cezare Borja
TTITLE3=Марш серых крыс
TTITLE4=Раймон Транкавель
TTITLE5=Романс Эмерьо
TTITLE6=Про скелеты в шкафу
TTITLE7=Homeland
TTITLE8=Закнафейн Дзиртч
TTITLE9=Кантри Брэган Дэрт
TTITLE10=Gvillavmette
TTITLE11=Amore
TTITLE12=Король прерии
TTITLE13=Песенка ведьмы
EXTD=
EXTT0=
EXTT1=
EXTT2=
EXTT3=
EXTT4=
EXTT5=
EXTT6=
EXTT7=
EXTT8=
EXTT9=
EXTT10=
EXTT11=
EXTT12=
EXTT13=
PLAYORDER=
